<svg width="169" height="36" viewBox="0 0 169 36" fill="none" xmlns="http://www.w3.org/2000/svg">
<path fill-rule="evenodd" clip-rule="evenodd" d="M0 35.413L0.535897 33.4486C2.56848 25.9978 4.08768 15.9748 5.07338 3.34121C5.10437 2.70013 5.46401 2.23881 5.62494 2.04618C5.84753 1.77977 6.12882 1.52795 6.42013 1.2955C7.00415 0.829487 7.78084 0.352221 8.66644 0.352221H21.3572L20.9155 2.25798C18.8077 11.3534 17.3157 21.0715 16.4426 31.4148C17.6342 30.3482 18.7837 29.1083 19.8897 27.6899C21.4524 25.6697 22.7723 23.5731 23.8525 21.3999L23.8563 21.3923L23.8601 21.3848C24.2832 20.5565 25.0082 19.9586 25.8065 19.5158C26.602 19.0746 27.452 18.7851 28.3274 18.7851H30.0445L29.8492 20.5128C29.4699 23.8685 29.1416 26.543 28.8645 28.531C28.5937 30.474 28.3583 31.8689 28.1511 32.5842L28.1253 32.6733L28.0892 32.7586C27.8341 33.3614 27.3913 33.8983 26.9091 34.3686C26.6506 34.6207 26.3658 34.8603 26.0578 35.0446C25.7619 35.2217 25.3365 35.413 24.8265 35.413H0ZM15.9002 33.8617C16.5296 33.3849 17.1464 32.8678 17.7505 32.3104C18.9117 31.2389 20.0261 30.0184 21.0937 28.6488C22.7166 26.5511 24.0923 24.3674 25.2206 22.0975C25.4525 21.6435 25.893 21.2365 26.5422 20.8765C26.6073 20.8403 26.6719 20.806 26.736 20.7735C27.3103 20.4821 27.8408 20.3364 28.3274 20.3364C28.2664 20.8765 28.2067 21.3987 28.1483 21.9029C27.4829 27.6532 26.9939 31.0681 26.6813 32.1475C26.5422 32.4763 26.264 32.8442 25.8466 33.2512C25.4293 33.6582 25.0892 33.8617 24.8265 33.8617H15.9002ZM14.8337 32.2884C15.6522 22.0893 17.065 12.4781 19.0721 3.45479C19.1875 2.93575 19.305 2.41866 19.4243 1.90351H8.66644C8.31093 1.90351 7.87814 2.10701 7.36807 2.51402C6.85799 2.92103 6.60296 3.22629 6.60296 3.4298C5.67962 15.2797 4.28498 24.9065 2.41902 32.3104C2.28585 32.8388 2.15027 33.3559 2.0123 33.8617H12.8166C13.1721 33.8617 13.5971 33.6503 14.0918 33.2277C14.5864 32.805 14.8337 32.4919 14.8337 32.2884ZM49.2298 35.413L49.0617 34.0547C48.8793 32.5821 48.6898 31.1396 48.493 29.7272L48.4417 29.8026L47.7226 29.8656C46.5978 29.9642 45.4852 30.0982 44.3849 30.2676L44.4389 32.2909V32.3119C44.4389 32.9912 44.0607 33.4862 43.8974 33.6866C43.6791 33.9546 43.4018 34.2117 43.112 34.4518L43.108 34.4551C42.5328 34.9284 41.7607 35.413 40.8669 35.413H30.7897L32.1514 33.0738C34.5511 28.9515 38.3098 21.3286 43.4426 10.1489L45.0399 6.67002L45.1023 6.85274C45.7902 5.40228 46.3878 4.062 46.8963 2.83108L46.9082 2.80217L46.9213 2.77378C47.1812 2.20985 47.6921 1.71001 48.1439 1.31558L48.1536 1.30711L48.1634 1.29881C48.6948 0.850325 49.4437 0.352221 50.3264 0.352221H59.0371L59.2171 1.69482C59.8467 6.39178 60.6924 11.6333 61.7552 17.421C62.8331 23.1907 63.8765 28.0207 64.8846 31.9189L64.9346 32.1121V32.3119C64.9346 32.9748 64.5754 33.4634 64.4134 33.6684C64.2009 33.9375 63.9308 34.1957 63.6487 34.4368L63.6378 34.4461L63.6268 34.4551C63.0369 34.9405 62.261 35.413 61.3626 35.413H49.2298ZM60.2497 17.7065C59.1832 11.8988 58.333 6.63109 57.6993 1.90351H50.3264C50.0018 1.90351 49.6077 2.09919 49.144 2.49054C48.6957 2.8819 48.4175 3.19498 48.3093 3.4298C47.6756 4.96392 46.9105 6.65458 46.014 8.50178C47.2778 13.428 48.392 18.9601 49.3566 25.0983C49.4156 25.4734 49.4739 25.8507 49.5318 26.2302C49.5481 26.3375 49.5644 26.445 49.5807 26.5527C49.9355 28.9029 50.2691 31.3392 50.5815 33.8617H61.3626C61.7335 33.8617 62.1663 33.6582 62.6609 33.2512C63.1556 32.8285 63.4029 32.5154 63.4029 32.3119C62.3827 28.367 61.3316 23.4986 60.2497 17.7065ZM47.7034 24.4588C47.2341 21.5447 46.7306 18.774 46.1933 16.1461C45.9951 17.4849 45.7425 19.0418 45.4361 20.8151L45.4357 20.8173C45.2389 21.9472 45.0744 22.9412 44.9419 23.8009C46.0081 24 46.9338 24.2175 47.7034 24.4588ZM43.2086 25.0796C43.3632 23.9212 43.6027 22.4106 43.9273 20.5477C44.2519 18.6692 44.5147 17.0412 44.7156 15.6636C44.7935 15.1681 44.8573 14.7152 44.9071 14.3048C44.9959 13.5741 45.0402 12.9782 45.0402 12.5171C45.0402 11.7813 44.9707 11.21 44.8316 10.803C44.5649 11.3838 44.3019 11.9551 44.0425 12.5171C43.8309 12.9753 43.6218 13.4273 43.4151 13.873C39.5471 22.2139 36.5246 28.3597 34.3477 32.3104C34.0383 32.8718 33.746 33.3889 33.4708 33.8617H40.8669C41.2224 33.8617 41.6475 33.6582 42.1421 33.2512C42.6522 32.8285 42.9072 32.5154 42.9072 32.3119L42.8376 29.7055V28.9541C44.3988 28.6723 45.9831 28.461 47.5906 28.3201C47.8533 27.9343 48.0044 27.3732 48.0438 26.637C48.0508 26.5069 48.0543 26.3713 48.0543 26.2302C48.0289 26.2195 48.0031 26.2089 47.9769 26.1982C46.9675 25.7882 45.3781 25.4153 43.2086 25.0796ZM89.0648 3.15085C87.0268 12.422 85.6126 22.1423 84.8222 32.3119C84.8222 32.5154 84.5749 32.8285 84.0803 33.2512C83.5857 33.6582 83.1529 33.8617 82.7819 33.8617H72.2559C72.3814 33.3496 72.5047 32.8325 72.6259 32.3104C74.5499 24.0234 75.9336 14.4826 76.777 3.68809C76.777 3.50024 77.0243 3.21064 77.5189 2.81928C78.0135 2.41227 78.4386 2.20094 78.7941 2.18528C82.5144 1.8713 85.5283 1.68327 87.8358 1.62119C88.4044 1.6059 88.9301 1.59825 89.4129 1.59825C89.2949 2.11437 89.1789 2.63191 89.0648 3.15085ZM78.6904 0.637375C83.3278 0.246331 86.9101 0.0469628 89.4129 0.0469628H91.3397L91.1508 0.873377C91.704 0.428096 92.4268 0 93.2616 0C96.2422 0 98.9076 0.625392 101.202 1.93823L101.208 1.94135L101.213 1.94453C102.464 2.67385 103.466 3.67981 104.202 4.94179C104.961 6.24212 105.319 7.71087 105.319 9.30015C105.319 12.0676 104.035 14.374 101.729 16.1663C101.069 16.6794 100.353 17.1241 99.5829 17.5032C99.9699 17.7033 100.337 17.9275 100.684 18.1772C102.374 19.3782 103.186 21.1631 103.186 23.2951V23.349L102.862 28.0654C102.868 28.7251 102.992 29.0897 103.104 29.2771C103.107 29.2836 103.124 29.3114 103.197 29.3524C103.283 29.4007 103.448 29.4665 103.734 29.5094L105.265 29.7391L105.022 31.2871C104.849 32.3936 104.549 33.3962 104.072 34.2358L103.741 34.8191L103.094 34.9728C100.26 35.6463 97.7785 36 95.6729 36C93.636 36 91.8668 35.725 90.4979 35.0419L90.4859 35.0359L90.474 35.0296C89.7533 34.654 89.1317 34.1322 88.6963 33.432C88.2585 32.7277 88.0667 31.9351 88.0667 31.1144C88.0667 29.8397 88.2538 28.1803 88.5995 26.1747L88.6012 26.1651C88.957 24.1756 89.11 22.8903 89.11 22.2149C89.11 21.5997 88.9767 21.2141 88.8108 20.9621C88.68 20.7635 88.5799 20.7211 88.4295 20.7063L87.5762 20.622C87.0712 24.477 86.6631 28.4031 86.3518 32.4004C86.322 33.0182 85.9875 33.4726 85.8328 33.6684C85.6203 33.9375 85.3502 34.1957 85.0681 34.4368L85.0572 34.4461L85.0462 34.4551C84.4563 34.9405 83.6804 35.413 82.7819 35.413H70.2975L70.7693 33.488C72.8598 24.9572 74.3555 14.9974 75.2475 3.59788C75.2801 2.94763 75.6569 2.4874 75.8039 2.31522C76.0181 2.0644 76.2869 1.82622 76.5644 1.60592C77.1267 1.14511 77.8552 0.686508 78.6904 0.637375ZM88.1887 16.2921L88.3833 16.0542L88.6558 15.9096C89.6433 15.3858 90.4393 14.5644 91.0367 13.3672C91.6509 12.1363 91.9618 10.8038 91.9618 9.34711C91.9618 7.27576 91.3963 5.69222 90.3459 4.47395C89.5188 8.33404 88.7997 12.2734 88.1887 16.2921ZM101.33 28.0148L101.655 23.2951C101.655 21.6044 101.036 20.3207 99.7998 19.4441C99.1514 18.9762 98.3924 18.603 97.5229 18.3245C96.7344 18.0719 95.8549 17.8972 94.8846 17.8004L92.7979 17.6126C93.5396 17.5604 94.248 17.4758 94.9233 17.3587C94.9248 17.3585 94.9262 17.3582 94.9276 17.358C95.8451 17.1987 96.7014 16.9796 97.4964 16.7004C98.7486 16.2608 99.8487 15.6726 100.797 14.9357C102.791 13.3859 103.788 11.5074 103.788 9.30015C103.788 7.95388 103.486 6.76415 102.883 5.73097C102.281 4.69779 101.469 3.88377 100.449 3.28891C98.4242 2.13049 96.0284 1.55129 93.2616 1.55129C92.9061 1.55129 92.481 1.76262 91.9864 2.18528C91.4918 2.60795 91.2445 2.93669 91.2445 3.1715C92.7438 4.75258 93.4935 6.81112 93.4935 9.34711C93.4935 11.0378 93.1302 12.611 92.4038 14.0669C91.6773 15.5227 90.6649 16.595 89.3665 17.2838C89.264 17.4091 89.1712 17.5384 89.0882 17.6719C88.8078 18.1221 88.6378 18.6189 88.5782 19.1623C88.599 19.1644 88.6196 19.1667 88.6401 19.1693C89.2447 19.2457 89.7264 19.5565 90.0853 20.1016C90.4562 20.6651 90.6417 21.3696 90.6417 22.2149C90.6417 23.0446 90.4639 24.4535 90.1084 26.4416C89.7684 28.414 89.5984 29.9716 89.5984 31.1144C89.5984 32.2571 90.1239 33.1024 91.1749 33.6503C92.2415 34.1826 93.7408 34.4487 95.6729 34.4487C97.6204 34.4487 99.9776 34.12 102.744 33.4625C102.897 33.1935 103.031 32.8914 103.147 32.556C103.3 32.1106 103.421 31.6065 103.509 31.0439C103.478 31.0392 103.447 31.0342 103.416 31.029C102.632 30.8943 102.091 30.5783 101.794 30.0812C101.485 29.5646 101.33 28.8758 101.33 28.0148ZM109.022 35.413L109.456 33.5123C111.568 24.2597 113.064 14.2029 113.94 3.33863C113.971 2.71502 114.311 2.26099 114.471 2.06422C114.687 1.79664 114.962 1.54354 115.245 1.31005L115.254 1.30271L115.263 1.2955C115.847 0.829487 116.624 0.352221 117.51 0.352221H130.224L129.782 2.2581C127.656 11.4296 126.152 21.4766 125.276 32.4029C125.245 33.0195 124.911 33.4729 124.757 33.6684C124.544 33.9375 124.274 34.1957 123.992 34.4368L123.981 34.4461L123.97 34.4551C123.395 34.9284 122.623 35.413 121.729 35.413H109.022ZM123.746 32.3119C124.579 21.9178 125.976 12.2988 127.939 3.45479C128.054 2.93502 128.171 2.41793 128.291 1.90351H117.51C117.154 1.90351 116.721 2.10701 116.211 2.51402C115.717 2.92103 115.469 3.22629 115.469 3.4298C114.637 13.7695 113.245 23.3964 111.295 32.3104C111.181 32.8299 111.066 33.347 110.948 33.8617H121.729C122.085 33.8617 122.51 33.6582 123.004 33.2512C123.499 32.8285 123.746 32.5154 123.746 32.3119ZM140.759 35.413L140.548 34.1141C138.854 23.7139 136.784 13.6126 134.337 3.80998L134.29 3.62283V3.4298C134.29 2.7593 134.656 2.27046 134.823 2.06422C135.04 1.79664 135.314 1.54354 135.598 1.31005C136.188 0.824637 136.964 0.352221 137.862 0.352221H150.273L150.421 1.73568C150.992 7.0494 151.534 10.8979 152.043 13.3218C152.566 15.8167 153.008 17.7437 153.369 19.1148C153.5 19.6119 153.63 20.0535 153.757 20.4432C154.841 16.0026 155.387 11.2325 155.389 6.12713L155.319 3.45021V3.4298C155.319 2.7593 155.685 2.27046 155.852 2.06422C156.069 1.79664 156.343 1.54354 156.627 1.31005L156.636 1.30271L156.645 1.2955C157.229 0.829487 158.006 0.352221 158.891 0.352221H169L167.628 2.69489C165.914 5.62164 163.092 11.1956 159.148 19.4639L159.237 19.4058L156.663 24.5376C155.695 26.4684 154.426 29.2605 152.854 32.9296L152.846 32.9489L152.837 32.9679C152.576 33.5334 152.054 34.043 151.594 34.4469L151.591 34.4496C151.052 34.9204 150.304 35.413 149.409 35.413H140.759ZM156.944 20.5242C160.694 12.6197 163.524 6.92987 165.433 3.45479C165.751 2.87633 166.044 2.35923 166.311 1.90351H158.891C158.536 1.90351 158.103 2.10701 157.593 2.51402C157.098 2.92103 156.851 3.22629 156.851 3.4298L156.921 6.10668C156.921 11.0247 156.426 15.657 155.435 20.0036C155.396 20.1749 155.356 20.3458 155.316 20.5162C155.313 20.5264 155.311 20.5365 155.309 20.5466C155.188 21.0518 155.061 21.5531 154.927 22.0505C155.048 22.0505 155.175 22.0268 155.31 21.9792C155.554 21.8931 155.82 21.729 156.109 21.487C156.155 21.4468 156.199 21.4074 156.242 21.3687C156.522 21.1136 156.723 20.8908 156.847 20.7003C156.888 20.6382 156.92 20.5795 156.944 20.5242ZM153.605 23.6018C153.439 23.4164 153.275 23.1785 153.113 22.8882C152.689 22.1256 152.281 21.001 151.889 19.5145C151.518 18.1057 151.07 16.1489 150.545 13.6442C150.019 11.1395 149.47 7.22596 148.899 1.90351H137.862C137.491 1.90351 137.059 2.10701 136.564 2.51402C136.069 2.92103 135.822 3.22629 135.822 3.4298C138.28 13.2763 140.359 23.4203 142.059 33.8617H149.409C149.749 33.8617 150.143 33.666 150.591 33.2746C151.055 32.8676 151.341 32.5467 151.449 32.3119C152.595 29.6384 153.585 27.4155 154.421 25.6432C154.451 25.5802 154.48 25.5179 154.509 25.4561C154.79 24.8635 155.053 24.3232 155.298 23.8351C155.035 24.0073 154.772 24.0934 154.509 24.0934C154.222 24.0934 153.941 23.9516 153.667 23.6679C153.646 23.6467 153.625 23.6247 153.605 23.6018Z" fill="#EEFF03"/>
</svg>
